<?xml version="1.0" encoding="utf-8"?>
<!-- Generator: Adobe Illustrator 23.0.1, SVG Export Plug-In . SVG Version: 6.00 Build 0)  -->
<svg version="1.1" id="Layer_1" xmlns="http://www.w3.org/2000/svg" xmlns:xlink="http://www.w3.org/1999/xlink" x="0px" y="0px"
	 viewBox="0 0 1200 1000" style="enable-background:new 0 0 1200 1000;" xml:space="preserve">
<style type="text/css">
	.st0{fill:#0054AA;}
	.st1{fill:#7BADD7;}
</style>
<g>
	<g>
		<path class="st0" d="M375.76,523.7h-51.62v-22.62c0.35,0.44,0.72,0.88,1.1,1.31c2.64,2.92,6.02,5.29,10.16,7.13
			c4.14,1.83,9.27,2.75,15.38,2.75h24.98c1.31,0,2.4,0.54,3.24,1.62c0.85,1.08,1.27,2.38,1.27,3.88v0.28c0,1.6-0.42,2.94-1.27,4.03
			C378.15,523.16,377.07,523.7,375.76,523.7z"/>
		<path class="st0" d="M406.39,450.6V476h51.51c1.41,0,2.61,0.55,3.59,1.62c0.99,1.09,1.49,2.38,1.49,3.88
			c0,1.51-0.49,2.78-1.49,3.81c-0.99,1.03-2.23,1.55-3.74,1.55h-18.63c-10.25,0-18.27,2.59-24.06,7.76
			c-5.78,5.18-8.67,12.84-8.67,23v31.47h25.4v-31.18c0-1.51,0.44-2.83,1.34-3.96c0.89-1.12,2-1.69,3.31-1.69h19.05
			c6.02,0,11.1-0.89,15.24-2.68c4.14-1.78,7.53-4.13,10.17-7.05c0.23-0.26,0.47-0.53,0.68-0.79v57.71H324.13V549.1h48.66
			c10.54,0,18.68-2.61,24.41-7.83c5.74-5.22,8.61-12.96,8.61-23.21c0-10.44-2.9-18.25-8.68-23.43c-5.78-5.17-13.81-7.76-24.06-7.76
			h-24.55c-1.51,0-2.75-0.52-3.74-1.55c-0.99-1.03-1.48-2.31-1.48-3.81c0-1.5,0.49-2.79,1.48-3.88c0.99-1.07,2.19-1.62,3.6-1.62
			h51.51v-25.4h-49.11c-5.83,0-10.84,0.82-15.03,2.47c-4.19,1.64-7.6,3.88-10.23,6.7c-0.49,0.52-0.95,1.05-1.39,1.61V402
			l157.45,39.02v19.87c-0.31-0.38-0.64-0.75-0.97-1.11c-2.64-2.82-6.04-5.06-10.23-6.7c-4.19-1.65-9.15-2.47-14.89-2.47H406.39z"/>
		<path class="st0" d="M481.59,501.74v-40.86"/>
	</g>
	<path class="st1" d="M490.96,548.07v-16.79c5.63,2.82,16.43,6.57,26.77,6.57c7.98,0,14.09-2.35,14.09-7.16
		c0-12.79-41.91-9.27-41.91-36.63c0-14.2,11.15-23.12,31.34-23.12c12.33,0,20.66,3.4,24.42,6.1v15.26
		c-5.63-2.93-13.5-6.22-22.89-6.22c-9.86,0-15.26,3.87-15.26,8.22c0,11.97,41.91,8.92,41.91,35.81c0,10.45-6.1,23.01-31.11,23.01
		C506.93,553.12,496.71,550.42,490.96,548.07z"/>
	<path class="st1" d="M552.51,487.37v-15.26h15.73v15.26H552.51z M552.51,493.48h15.61v58.46h-15.61V493.48z"/>
	<path class="st1" d="M573.79,472.11h15.61v21.37h17.84v13.38h-17.84v19.84c0,7.4,1.64,11.97,7.87,11.97c2.23,0,8.45-0.35,9.98-0.7
		v13.97c-2.82,0.59-9.74,1.05-11.86,1.05c-15.14-0.12-21.6-9.51-21.6-26.41V472.11z"/>
	<path class="st1" d="M638.38,492.42c17.26,0,28.76,11.27,30.05,30.41c0.12,1.76,0.12,4.69,0.12,6.46h-42.73
		c1.53,5.52,7.04,10.33,13.97,10.33c6.1,0,11.39-3.52,13.85-7.63l12.33,6.1C660.69,547.01,652,553,639.68,553
		c-19.84,0-30.99-13.62-30.99-30.4C608.68,506.16,622.42,492.42,638.38,492.42z M651.77,517.78c-0.59-6.1-5.28-11.86-12.68-11.86
		c-7.63,0-12.21,5.4-13.5,11.86H651.77z"/>
	<path class="st1" d="M723.62,510.5c1.6-0.54,3.09-1.18,4.44-1.93c5.78-3.22,9.17-8.49,9.17-16.38c0-13.27-9.5-20.08-26.06-20.08
		h-29.34v79.83h31.93c18.78,0,28.17-7.63,28.17-21.25C741.93,519.89,736.18,512.85,723.62,510.5z M690.98,480.33H710
		c9.74,0,17.84,3.99,17.84,13.74c0,6.86-4.24,10.67-9.75,12.45c-2.78,0.9-5.87,1.28-8.91,1.28h-18.2V480.33z M713.17,543.72h-22.19
		v-28.87h22.42c12.68,0,19.02,4.92,19.02,14.2C732.42,538.44,726.2,543.72,713.17,543.72z"/>
	<path class="st1" d="M747.5,472.11v79.83h8.56v-79.83H747.5z"/>
	<path class="st1" d="M810.35,521.19c0-3.63,0.93-7.07,2.68-10.01c0.52-0.89,1.12-1.73,1.79-2.51c-1.5-2.58-3.36-4.91-5.52-6.93
		c-5.13-4.76-11.93-7.68-19.37-7.68c-12.26,0-22.79,7.69-27.12,18.5c-1.37,3.4-2.12,7.11-2.12,10.98c0,16.3,13.13,29.58,29.24,29.58
		c8.66,0,16.49-3.97,21.8-10.26c1.89-2.21,3.46-4.73,4.61-7.46C812.49,531.79,810.35,526.64,810.35,521.19z M790.03,545.37
		c-12.08,0-20.53-10.56-20.53-21.83c0-3.75,0.95-7.41,2.68-10.63c3.4-6.37,9.83-10.97,17.85-10.97c5.89,0,10.89,2.63,14.41,6.65
		c0.87,0.99,1.65,2.07,2.33,3.21c2.06,3.47,3.21,7.55,3.21,11.74c0,4.72-1.45,9.31-3.97,13.04
		C802.52,541.78,796.87,545.37,790.03,545.37z"/>
	<path class="st1" d="M849.43,494.77v9.41c-4.1-5.53-10.8-10.12-21.13-10.12c-7.69,0-14.27,2.92-19,7.68
		c-1.97,1.99-3.61,4.3-4.86,6.85c0.87,0.99,1.65,2.07,2.33,3.21c2.06,3.47,3.21,7.55,3.21,11.74c0,4.72-1.45,9.31-3.97,13.04
		c1.54,2.4,3.48,4.54,5.72,6.28c4.46,3.56,10.13,5.67,16.57,5.67c10.33-0.12,17.03-4.93,21.13-10.43v6.21
		c0,13.16-7.63,20.89-21.6,20.89c-6.92,0-13.85-1.99-18.41-3.75v7.97c4.69,2.02,12.08,3.66,19.59,3.66
		c19.37,0,28.99-12.1,28.99-29.82v-48.49H849.43z M849.43,516.13v10.68c-2.23,4.71-9.15,13.62-19.83,13.62
		c-5.45,0-9.97-1.94-13.26-5.03c-3.85-3.61-5.99-8.76-5.99-14.21c0-3.63,0.93-7.07,2.68-10.01c0.52-0.89,1.12-1.73,1.79-2.51
		c3.29-3.95,8.39-6.51,14.78-6.51c4.97,0,9.13,1.68,12.37,4.11C845.71,509.05,848.24,512.81,849.43,516.13z"/>
	<circle class="st1" cx="789.02" cy="523.3" r="9.82"/>
	<circle class="st1" cx="830.75" cy="520.84" r="9.82"/>
	<path class="st0" d="M737.23,492.19c0,7.89-3.39,13.16-9.17,16.38c-3.42-0.62-6.75-1.31-9.97-2.05c5.51-1.78,9.75-5.59,9.75-12.45
		c0-9.75-8.1-13.74-17.84-13.74h-19.02v17.6c-3.3-1.41-6.36-2.9-9.15-4.47v-21.35h29.34C727.73,472.11,737.23,478.92,737.23,492.19z
		"/>
	<path class="st0" d="M747.5,472.11h8.56v40.02c-2.89-0.22-5.75-0.48-8.56-0.78V472.11z"/>
	<path class="st0" d="M858,494.77v6.97c-4.97,1.67-10.34,3.19-16.03,4.53c-3.24-2.43-7.4-4.11-12.37-4.11
		c-6.39,0-11.49,2.56-14.78,6.51c-0.67,0.78-1.27,1.62-1.79,2.51c-2.06,0.23-4.15,0.44-6.26,0.62c-0.68-1.14-1.46-2.22-2.33-3.21
		c-3.52-4.02-8.52-6.65-14.41-6.65c-8.02,0-14.45,4.6-17.85,10.97c-3.16-0.07-6.29-0.19-9.37-0.35c4.33-10.81,14.86-18.5,27.12-18.5
		c7.44,0,14.24,2.92,19.37,7.68c4.73-4.76,11.31-7.68,19-7.68c10.33,0,17.03,4.59,21.13,10.12v-9.41H858z"/>
</g>
</svg>
