<svg width="31" height="33" viewBox="0 0 31 33" fill="none" xmlns="http://www.w3.org/2000/svg">
<path d="M15.5 27.8438C12.0125 27.8438 8.62188 25.9875 6.5875 22.6875H11.625V20.625H3.875V28.875H5.8125V25.0594C8.23438 28.1531 11.7219 29.9062 15.5 29.9062V27.8438ZM30.0312 23.7188V21.6562H27.9969C27.9 21.0375 27.6094 20.4188 27.3188 19.8L28.7719 18.2531L27.4156 16.8094L25.9625 18.3562C25.4781 18.0469 24.8969 17.7375 24.2188 17.6344V15.4688H22.2812V17.6344C21.7 17.7375 21.1188 18.0469 20.5375 18.3562L19.0844 16.8094L17.7281 18.2531L19.1812 19.8C18.8906 20.3156 18.6 20.9344 18.5031 21.6562H16.4688V23.7188H18.5031C18.6 24.3375 18.8906 24.9562 19.1812 25.575L17.7281 27.1219L19.0844 28.5656L20.5375 27.0188C21.0219 27.3281 21.6031 27.6375 22.2812 27.7406V29.9062H24.2188V27.7406C24.8 27.6375 25.3812 27.3281 25.9625 27.0188L27.4156 28.5656L28.7719 27.1219L27.3188 25.575C27.6094 25.0594 27.9 24.4406 27.9969 23.7188H30.0312ZM23.25 25.7812C21.6031 25.7812 20.3438 24.4406 20.3438 22.6875C20.3438 20.9344 21.6031 19.5938 23.25 19.5938C24.8969 19.5938 26.1562 20.9344 26.1562 22.6875C26.1562 24.4406 24.8969 25.7812 23.25 25.7812ZM19.375 10.3125H24.4125C21.2156 5.05313 14.6281 3.60938 9.6875 7.0125C6.68438 9.075 4.84375 12.6844 4.84375 16.5H2.90625C2.90625 9.075 8.525 3.09375 15.5 3.09375C19.2781 3.09375 22.7656 4.84687 25.1875 7.94062V4.125H27.125V12.375H19.375V10.3125Z" fill="#033A72"/>
</svg>
