<svg width="32" height="32" viewBox="0 0 32 32" fill="none" xmlns="http://www.w3.org/2000/svg">
<path d="M16 4.92308C13.8092 4.92308 11.6676 5.57273 9.846 6.78987C8.02441 8.00702 6.60465 9.737 5.76626 11.761C4.92788 13.7851 4.70852 16.0123 5.13592 18.161C5.56333 20.3097 6.6183 22.2834 8.16744 23.8326C9.71657 25.3817 11.6903 26.4367 13.839 26.8641C15.9877 27.2915 18.2149 27.0721 20.239 26.2337C22.263 25.3954 23.993 23.9756 25.2101 22.154C26.4273 20.3324 27.0769 18.1908 27.0769 16C27.0737 13.0632 25.9056 10.2476 23.829 8.17103C21.7524 6.09441 18.9368 4.92633 16 4.92308ZM16 20.9231C16.765 20.9257 17.5199 20.7489 18.2042 20.4069C18.8884 20.065 19.4829 19.5673 19.94 18.9538C20.036 18.8218 20.1573 18.7101 20.2969 18.6254C20.4364 18.5407 20.5915 18.4846 20.7529 18.4604C20.9144 18.4362 21.079 18.4443 21.2373 18.4843C21.3956 18.5244 21.5443 18.5955 21.6748 18.6936C21.8054 18.7916 21.9151 18.9147 21.9976 19.0556C22.0801 19.1965 22.1337 19.3524 22.1554 19.5142C22.1771 19.676 22.1663 19.8405 22.1238 19.9981C22.0813 20.1558 22.0078 20.3033 21.9077 20.4323C20.9774 21.6717 19.6808 22.587 18.2015 23.0486C16.7222 23.5102 15.1352 23.4948 13.6651 23.0044C12.1951 22.5141 10.9166 21.5737 10.0106 20.3165C9.10463 19.0593 8.61712 17.5489 8.61712 15.9992C8.61712 14.4496 9.10463 12.9392 10.0106 11.682C10.9166 10.4247 12.1951 9.48435 13.6651 8.99402C15.1352 8.50369 16.7222 8.48824 18.2015 8.94987C19.6808 9.41149 20.9774 10.3268 21.9077 11.5662C22.0078 11.6951 22.0813 11.8427 22.1238 12.0003C22.1663 12.158 22.1771 12.3225 22.1554 12.4843C22.1337 12.6461 22.0801 12.802 21.9976 12.9429C21.9151 13.0838 21.8054 13.2068 21.6748 13.3049C21.5443 13.403 21.3956 13.4741 21.2373 13.5141C21.079 13.5541 20.9144 13.5623 20.7529 13.5381C20.5915 13.5138 20.4364 13.4577 20.2969 13.373C20.1573 13.2883 20.036 13.1767 19.94 13.0446C19.4364 12.3736 18.7696 11.8425 18.003 11.5016C17.2364 11.1607 16.3954 11.0214 15.5598 11.0969C14.7242 11.1724 13.9218 11.4601 13.2287 11.9329C12.5356 12.4056 11.9748 13.0476 11.5995 13.798C11.2243 14.5484 11.047 15.3822 11.0846 16.2203C11.1221 17.0585 11.3732 17.8731 11.8141 18.5869C12.2549 19.3007 12.8709 19.89 13.6035 20.2989C14.3361 20.7078 15.161 20.9226 16 20.9231ZM16 0C12.8355 0 9.74207 0.938383 7.11088 2.69649C4.4797 4.45459 2.42894 6.95345 1.21793 9.87706C0.00693255 12.8007 -0.309921 16.0177 0.307443 19.1214C0.924806 22.2251 2.44866 25.0761 4.6863 27.3137C6.92394 29.5513 9.77486 31.0752 12.8786 31.6926C15.9823 32.3099 19.1993 31.9931 22.1229 30.7821C25.0466 29.5711 27.5454 27.5203 29.3035 24.8891C31.0616 22.2579 32 19.1645 32 16C31.9955 11.7579 30.3084 7.69085 27.3088 4.69124C24.3091 1.69163 20.2421 0.00447972 16 0ZM16 29.5385C13.3223 29.5385 10.7048 28.7444 8.47844 27.2568C6.25205 25.7692 4.51679 23.6548 3.4921 21.1809C2.4674 18.7071 2.1993 15.985 2.72168 13.3588C3.24407 10.7326 4.53348 8.32025 6.42687 6.42686C8.32026 4.53347 10.7326 3.24406 13.3588 2.72168C15.985 2.19929 18.7071 2.4674 21.1809 3.49209C23.6548 4.51679 25.7692 6.25204 27.2568 8.47843C28.7444 10.7048 29.5385 13.3223 29.5385 16C29.5344 19.5894 28.1067 23.0306 25.5686 25.5686C23.0306 28.1067 19.5894 29.5344 16 29.5385Z" fill="white"/>
</svg>
