<?xml version="1.0" encoding="utf-8"?>
<!-- Generator: Adobe Illustrator 23.0.1, SVG Export Plug-In . SVG Version: 6.00 Build 0)  -->
<svg version="1.1" id="Layer_1" xmlns="http://www.w3.org/2000/svg" xmlns:xlink="http://www.w3.org/1999/xlink" x="0px" y="0px"
	 viewBox="0 0 1200 1000" style="enable-background:new 0 0 1200 1000;" xml:space="preserve">
<style type="text/css">
	.st0{fill:#FFFFFF;}
	.st1{fill:#055579;}
	.st2{fill:#FFFFFF;stroke:#006837;stroke-miterlimit:10;}
	.st3{fill:#009245;}
	.st4{fill:none;}
	.st5{fill:#006837;}
	.st6{font-family:'agright-Regular';}
	.st7{font-size:39.3684px;}
</style>
<rect x="130.5" y="232" class="st0" width="939" height="536"/>
<polygon class="st1" points="380.14,476.44 380.85,477.25 380.3,478.13 "/>
<polygon class="st1" points="386.83,422.8 387.53,423.9 387.11,425.03 "/>
<polygon class="st1" points="397.1,446.4 396.35,445.33 397.05,444.16 "/>
<path class="st2" d="M403.08,504.67l-7.41,22.75c-11.12,2.98-12.48,15.82-15.05,26.07c-3.63,14.56-6.14,29.41-9.74,44
	c-2.12,8.54-6.42,16.6-16.47,16.91c-9.65,0.29-15.16-6.65-18.73-14.87c-7.73-17.92-8.74-38.8-9.65-58.03
	c-0.89-18.98-0.36-38.13-1.69-57.08c-1.3-18.42-5.97-36.62-4.6-55.19c0.54-7.38,2.09-14.59,5.35-21.51
	c6.65-14.12,19.03-22.65,34.84-22.1c10.64,0.37,19.93,5.3,29.94,8.14c0.75,0.21,1.51,0.41,2.24,0.55l-9.74,29.04l-0.41,1.23
	l0.68,1.01l13.7,19.75l-18.45,31.32l-0.55,0.94l0.71,0.75L403.08,504.67z"/>
<polygon class="st1" points="403.39,504.99 403.08,504.67 403.23,504.23 "/>
<path class="st3" d="M485.25,484.42c-1.33,18.95-0.79,38.1-1.69,57.08c-0.91,19.23-1.91,40.11-9.65,58.03
	c-3.57,8.22-9.08,15.16-18.73,14.87c-10.05-0.31-14.35-8.37-16.47-16.91c-3.6-14.59-6.11-29.44-9.74-44
	c-2.92-11.64-4.28-26.64-20.17-26.7c-0.49,0-0.96,0.02-1.41,0.03c-0.68,0.03-1.35,0.1-1.96,0.18c-0.21,0.03-0.42,0.06-0.63,0.11
	c-0.21-0.05-0.42-0.08-0.63-0.11c-0.62-0.08-1.28-0.15-1.96-0.18c-0.45-0.02-0.92-0.03-1.41-0.03c-1.59,0-3.03,0.16-4.35,0.45
	l8.22-22.5l0.15-0.42l-0.31-0.34l-23.65-26.72l19.73-30.93l0.68-1.07l-0.73-1.15l-13-20.2l10.75-28.66
	c17.85,1.28,33.14-8.98,51.38-9.61c15.81-0.55,28.19,7.98,34.84,22.1c3.26,6.92,4.82,14.14,5.35,21.51
	C491.21,447.8,486.54,466,485.25,484.42z"/>
<polygon class="st0" points="380.14,476.44 380.85,477.25 380.3,478.13 "/>
<polygon class="st0" points="386.83,422.8 387.53,423.9 387.11,425.03 "/>
<path class="st4" d="M396.45,527.24c-0.28,0.05-0.52,0.11-0.78,0.18"/>
<polygon class="st0" points="397.05,444.16 397.1,446.4 396.35,445.33 "/>
<polygon class="st0" points="403.39,504.99 403.08,504.67 403.23,504.23 "/>
<path class="st5" d="M366.7,397.05c-5.79,1.02-11.27,2.73-16.25,5.21c-4.94,2.53-9.32,5.89-12.61,10.17
	c-3.34,4.24-5.64,9.28-7.15,14.67c-1.52,5.4-2.28,11.11-2.9,16.97c-1.4-5.73-1.73-11.77-0.81-17.76c0.84-5.98,3.16-11.96,7.04-16.88
	c3.83-4.96,9.2-8.63,14.95-10.64C354.71,396.75,360.86,396.05,366.7,397.05z"/>
<path class="st0" d="M439.95,393.81c5.79,1.02,11.27,2.73,16.25,5.21c4.94,2.53,9.32,5.89,12.61,10.17
	c3.34,4.24,5.64,9.28,7.15,14.67c1.52,5.4,2.28,11.11,2.9,16.97c1.4-5.73,1.73-11.77,0.81-17.76c-0.84-5.98-3.16-11.96-7.04-16.88
	c-3.83-4.96-9.2-8.63-14.95-10.64C451.94,393.5,445.79,392.81,439.95,393.81z"/>
<text transform="matrix(1 0 0 1 583.3633 579.6748)" class="st5 st6 st7">WHITES</text>
<g>
	<path class="st3" d="M509.45,523.73v-72.85c-0.17-2.52-1.56-3.91-4.08-4.17v-2.17h30.04c3.73,0.09,9.2,0.17,14.5,3.21
		c6.51,3.74,10.85,10.25,10.85,18.15c-0.7,15.11-16.76,15.11-28.65,20.41c-6.34,3.04-11.46,7.29-12.85,16.67v20.84
		c0.17,2.52,1.56,3.82,4.08,4.08v2.17h-17.97v-2.17C507.89,527.64,509.28,526.25,509.45,523.73z M537.15,481.45
		c4.6-1.74,8.51-4.25,11.11-8.07c1.3-1.91,2.08-4.43,2.34-7.55c0-0.52,0.09-1.13,0.09-1.65c0-3.73-0.87-7.99-3.56-11.55
		c-2.78-3.56-7.03-5.9-12.68-5.9h-15.19v48.28C522.82,487.27,530.46,484.05,537.15,481.45z"/>
	<path class="st3" d="M569.09,529.99v-2.17c2.52-0.26,3.91-1.65,4.08-4.17V450.8c-0.26-2.43-1.39-3.91-4.08-4.17v-2.17h47.5
		l2.69,11.2l-2.17,0.52l-0.44-1.56c-0.78-2.69-3.99-7.99-10.94-7.99h-22.75v37.25c10.42,3.73,20.06,4.69,29.35,4.69
		c6.16,0,11.81-0.44,17.37-0.87c4.77-0.35,9.12-0.7,13.54-0.7c6.95-18.32,14.24-37.34,16.33-42.54h0.87
		c0.26,0.95,7.56,20.06,14.94,39.25c7.38,19.28,14.67,38.72,15.37,40.37c0.96,2.08,2,3.47,4.69,3.74v2.17h-18.67v-2.17
		c2.78-0.26,3.3-1.82,3.3-3.13c0-0.35-0.09-0.78-0.17-1.21c-0.61-1.39-1.22-2.95-1.82-4.69c-1.13-3.04-2.69-6.95-4.43-11.72
		l-0.09-0.09c-6.69-14.33-16.41-17.54-28.74-17.8l-13.29,34.56c-0.17,0.52-0.26,1.04-0.26,1.48c0,0.52,0.17,1.04,0.44,1.65
		s1.13,0.96,2.78,0.96v2.17h-9.72v-2.17c2.69-0.26,3.56-2,4.51-4.34c2.08-5.04,7.29-19.28,13.11-34.3
		c-9.03,0.26-18.93,1.65-30.13,1.65c-9.12,0-18.84-1.04-29.26-4.6v41.59h22.75c7.99,0,10.24-5.99,11.37-9.73l2.17,0.61l-2.69,11.29
		H569.09z M669.72,496.82c-4.86-12.07-9.12-24.22-13.89-36.47c-2.08,5.3-3.73,9.73-10.25,26.66
		C655.22,487.27,663.3,489.44,669.72,496.82z"/>
	<path class="st3" d="M702,444.55h30.04c4.86,0,11.37,0.61,16.67,3.21c5.47,2.87,8.68,8.08,8.68,15.28c0,0.44,0,0.78,0,1.22
		c-0.7,13.46-13.11,16.15-24.23,20.32c6.95,0.26,14.5,3.65,17.02,16.15c3.47,17.63,5.99,27.18,14.15,27.18v2.17
		c-12.59,0-20.15-8.6-22.58-23.18c-1.48-8.94-4.08-13.89-6.86-16.58c-2.87-2.69-5.38-2.86-7.21-2.86c-0.43,0-0.87,0-1.3,0.09
		c-5.29,3.04-9.38,7.38-10.5,15.46v20.84c0.17,2.52,1.56,3.82,4.08,4.08v2.17H702v-2.17c2.52-0.26,3.91-1.65,4.08-4.17v-72.85
		c-0.17-2.52-1.56-3.91-4.08-4.17V444.55z M723.88,486.31c9.46-5.99,22.23-6.51,23.36-20.49c0-0.52,0.09-1.13,0.09-1.65
		c0-3.73-0.87-7.99-3.56-11.55c-2.78-3.56-7.03-5.9-12.68-5.9h-15.19v48.28C717.89,490.91,720.67,488.31,723.88,486.31z"/>
	<path class="st3" d="M772.66,530.07v-2.17c2.69-0.26,4.08-1.82,4.08-4.25v-72.68c0-2.43-1.39-3.99-4.08-4.25v-2.17h17.97v2.17
		c-2.69,0.26-3.99,1.74-3.99,3.91c0,0.09,0,0.17,0,0.26v77.02h22.66c7.38,0,10.24-5.99,11.37-9.72l2.17,0.61l-2.69,11.29H772.66z"/>
	<path class="st3" d="M801.57,444.55h20.49v2.17c-2.69,0.26-3.21,1.56-3.21,2.34c0,0.44,0.17,0.96,0.52,1.48l26.48,35.69
		l26.48-35.77c0.26-0.52,0.43-0.95,0.43-1.39c0-0.78-0.69-2.08-3.21-2.34v-2.17h10.94v2.17c-2.09,0.26-3.47,1.13-4.78,2.78
		l-29.35,39.77v34.47c0.09,2.43,1.13,3.91,3.82,4.17v2.17h-17.8v-2.17c2.52-0.26,3.91-1.65,4.08-4.17v-33.6l-30.13-40.72
		c-1.3-1.48-2.69-2.43-4.78-2.69V444.55z"/>
</g>
<g>
	<path class="st5" d="M505.4,562.52l77.32-2c1.1-0.03,2.02,0.84,2.05,1.95c0.03,1.1-0.84,2.02-1.95,2.05c-0.03,0-0.07,0-0.1,0
		L505.4,562.52z"/>
</g>
<g>
	<path class="st5" d="M778.5,560.52l77.32,2l-77.32,2c-1.1,0.03-2.02-0.84-2.05-1.95c-0.03-1.1,0.84-2.02,1.95-2.05
		C778.43,560.52,778.47,560.52,778.5,560.52z"/>
</g>
</svg>
